<?xml version="1.0" encoding="utf-8"?>
<!-- Generator: Adobe Illustrator 27.0.0, SVG Export Plug-In . SVG Version: 6.00 Build 0)  -->
<svg version="1.1" id="Layer_1" xmlns="http://www.w3.org/2000/svg" xmlns:xlink="http://www.w3.org/1999/xlink" x="0px" y="0px"
	 viewBox="0 0 1100 900" style="enable-background:new 0 0 1100 900;" xml:space="preserve">
<style type="text/css">
	.st0{fill:#9013FE;}
	.st1{fill:none;stroke:#9013FE;stroke-miterlimit:10;}
</style>
<g>
	<g>
		<g>
			<g>
				<path class="st0" d="M110.1,199.6l-10-10l2.9-2.9l10,10c2.4,2.4,5.5,2.1,8.1-0.5c2.6-2.6,2.9-5.7,0.5-8.1l-10-10l2.6-2.6l10,10
					c3.9,3.9,3.6,9-0.7,13.3C119.1,203.2,114,203.4,110.1,199.6z"/>
				<path class="st0" d="M127.3,183.5l2.6-2.6c2,2,4.4,2.5,7.5-0.6c3.3-3.3,2.9-5.3,1.6-6.6c-0.9-0.9-1.8-1-2.8-0.5
					c-1.1,0.5-3.1,2-4.7,3.2c-1.8,1.4-3.9,2.7-5.3,3c-1.6,0.4-3.3-0.1-4.8-1.6c-2.9-2.9-2.5-7.5,1.7-11.7c4.8-4.8,8.6-4.4,12.2-0.7
					l-2.6,2.6c-2.4-2.4-4.8-2.2-7.3,0.3c-2.4,2.4-2.9,4.9-1.4,6.3c0.9,0.9,1.8,1.1,2.7,0.8c1-0.4,3.1-1.9,4.7-3.1
					c2-1.4,3.8-2.7,5.3-3.2c1.7-0.5,3.4,0,4.9,1.4c2.6,2.6,3.5,6.5-2,12C134.4,187.9,130.2,186.4,127.3,183.5z"/>
				<path class="st0" d="M133,156.7l11-11l2.4,2.4l-8,8l4.6,4.6l6.4-6.4l1.9,1.9l-6.4,6.4l4.7,4.7l8.3-8.3l2.4,2.4l-11.2,11.2
					L133,156.7z"/>
				<path class="st0" d="M158.4,136.1l-5,5l-2.4-2.4l12.9-12.9l2.4,2.4l-5,5l13.6,13.6l-2.9,2.9L158.4,136.1z"/>
				<path class="st0" d="M166,123.7l2.9-2.9l6.6,6.6l8.5-8.5l-6.6-6.6l2.9-2.9l16.1,16.1l-2.9,2.9l-7.1-7.1l-8.5,8.5l7.1,7.1
					l-2.9,2.9L166,123.7z"/>
				<path class="st0" d="M183.5,106.2l11-11l2.4,2.4l-8,8l4.6,4.6l6.4-6.4l1.9,1.9l-6.4,6.4l4.7,4.7l8.3-8.3l2.4,2.4l-11.2,11.2
					L183.5,106.2z"/>
				<path class="st0" d="M202.5,87.2l2.9-2.9l13.6,13.6l8-8l2.4,2.4l-10.9,10.9L202.5,87.2z"/>
				<path class="st0" d="M215.5,74.2l11-11l2.4,2.4l-8,8l4.6,4.6l6.4-6.4l1.9,1.9l-6.4,6.4l4.7,4.7l8.3-8.3l2.4,2.4l-11.2,11.2
					L215.5,74.2z"/>
				<path class="st0" d="M229,60.7l4.4-4.4l19.8,4.6l0,0L241,48.7l2.8-2.8L259.8,62l-3.5,3.5l-22.2-5l0,0L247.8,74l-2.8,2.8
					L229,60.7z"/>
				<path class="st0" d="M257,53.9l2.6-2.6c2,2,4.4,2.5,7.5-0.6c3.3-3.3,2.9-5.3,1.6-6.6c-0.9-0.9-1.8-1-2.8-0.5
					c-1.1,0.5-3.1,2-4.7,3.2c-1.8,1.4-3.9,2.7-5.3,3c-1.6,0.4-3.3-0.1-4.8-1.6c-2.9-2.9-2.5-7.5,1.7-11.7c4.8-4.8,8.6-4.4,12.2-0.7
					l-2.6,2.6c-2.4-2.4-4.8-2.2-7.3,0.3c-2.4,2.4-2.9,4.9-1.4,6.3c0.9,0.9,1.8,1.1,2.7,0.8c1-0.4,3.1-1.9,4.7-3.1
					c2-1.4,3.8-2.7,5.3-3.2c1.7-0.5,3.4,0,4.9,1.4c2.6,2.6,3.5,6.5-2,12C264.1,58.2,259.9,56.8,257,53.9z"/>
			</g>
			<g>
				<path class="st1" d="M254,196.8c-6.9-6.9-6.1-16.1,0.2-22.4c6.3-6.3,15.5-7.1,22.4-0.2c7,7,6.3,16.3,0,22.6
					C270.3,203.1,261,203.8,254,196.8z M272.5,178.2c-4.9-4.9-11-4.6-15.1-0.5c-4,4-4.3,10.2,0.6,15c5,5,11.2,4.8,15.2,0.8
					C277.3,189.5,277.5,183.2,272.5,178.2z"/>
				<path class="st1" d="M269.3,159.9l14.5-14.5l3.3,3.3l-10.6,10.6l6.6,6.6l8.9-8.9l2.8,2.8l-8.9,8.9l9.1,9.1l-4,4L269.3,159.9z"/>
				<path class="st1" d="M302.9,132.8l-6.7,6.7l-3.3-3.3l17.5-17.5l3.3,3.3l-6.7,6.7l18.5,18.5l-4,4L302.9,132.8z"/>
				<path class="st1" d="M313.2,116.1l9.6-9.6c5.6-5.6,10.9-6.1,14.8-2.1c2.8,2.8,3.5,6,1.4,9l0.1,0.1c3-2.2,5.9-1.4,8.5,1.2
					l5.3,5.3l-4,4l-5.3-5.3c-2.2-2.2-4.3-2.5-7.2,0.4l-6.1,6.1l8.6,8.6l-4,4L313.2,116.1z M333.3,117c3.2-3.2,3.2-6,0.9-8.3
					c-2.2-2.2-5-2-8.2,1.2l-5.6,5.6l7.2,7.2L333.3,117z"/>
				<path class="st1" d="M348.4,108l-13.6-13.6l3.9-3.9l13.5,13.5c3.3,3.3,7.5,2.9,11-0.6c3.6-3.6,3.9-7.7,0.6-11l-13.5-13.5
					l3.5-3.5l13.6,13.6c5.2,5.2,4.9,12.2-1,18.1C360.6,112.8,353.6,113.2,348.4,108z"/>
				<path class="st1" d="M366.6,69.2l-6.7,6.7l-3.3-3.3L374,55.2l3.3,3.3l-6.7,6.7L389,83.7l-4,4L366.6,69.2z"/>
				<path class="st1" d="M376.8,52.4l4-4l8.9,8.9l11.6-11.6l-8.9-8.9l3.9-3.9L418,54.7l-3.9,3.9l-9.7-9.7l-11.6,11.6l9.7,9.7l-4,4
					L376.8,52.4z"/>
			</g>
			<g>
				<path class="st0" d="M399.8,199.6l-10-10l2.9-2.9l10,10c2.4,2.4,5.5,2.1,8.1-0.5c2.6-2.6,2.9-5.7,0.5-8.1l-10-10l2.6-2.6l10,10
					c3.9,3.9,3.6,9-0.7,13.3C408.9,203.2,403.7,203.4,399.8,199.6z"/>
				<path class="st0" d="M417,183.5l2.6-2.6c2,2,4.4,2.5,7.5-0.6c3.3-3.3,2.9-5.3,1.6-6.6c-0.9-0.9-1.8-1-2.8-0.5
					c-1.1,0.5-3.1,2-4.7,3.2c-1.8,1.4-3.9,2.7-5.3,3c-1.6,0.4-3.3-0.1-4.8-1.6c-2.9-2.9-2.5-7.5,1.7-11.7c4.8-4.8,8.6-4.4,12.2-0.7
					l-2.6,2.6c-2.4-2.4-4.8-2.2-7.3,0.3c-2.4,2.4-2.9,4.9-1.4,6.3c0.9,0.9,1.8,1.1,2.7,0.8c1-0.4,3.1-1.9,4.7-3.1
					c2-1.4,3.8-2.7,5.3-3.2c1.7-0.5,3.4,0,4.9,1.4c2.6,2.6,3.5,6.5-2,12C424.1,187.9,420,186.4,417,183.5z"/>
				<path class="st0" d="M422.7,156.7l11-11l2.4,2.4l-8,8l4.6,4.6l6.4-6.4l1.9,1.9l-6.4,6.4l4.7,4.7l8.3-8.3l2.4,2.4l-11.2,11.2
					L422.7,156.7z"/>
				<path class="st0" d="M448.1,136.1l-5,5l-2.4-2.4l12.9-12.9l2.4,2.4l-5,5l13.6,13.6l-2.9,2.9L448.1,136.1z"/>
				<path class="st0" d="M455.7,123.7l2.9-2.9l6.6,6.6l8.5-8.5l-6.6-6.6l2.9-2.9l16.1,16.1l-2.9,2.9l-7.1-7.1l-8.5,8.5l7.1,7.1
					l-2.9,2.9L455.7,123.7z"/>
				<path class="st0" d="M473.2,106.2l11-11l2.4,2.4l-8,8l4.6,4.6l6.4-6.4l1.9,1.9l-6.4,6.4l4.7,4.7l8.3-8.3l2.4,2.4l-11.2,11.2
					L473.2,106.2z"/>
				<path class="st0" d="M492.3,87.2l2.9-2.9l13.6,13.6l8-8l2.4,2.4l-10.9,10.9L492.3,87.2z"/>
				<path class="st0" d="M505.2,74.2l11-11l2.4,2.4l-8,8l4.6,4.6l6.4-6.4l1.9,1.9l-6.4,6.4l4.7,4.7l8.3-8.3l2.4,2.4l-11.2,11.2
					L505.2,74.2z"/>
				<path class="st0" d="M518.7,60.7l4.4-4.4l19.8,4.6l0,0l-12.2-12.1l2.8-2.8L549.5,62l-3.5,3.5l-22.2-5l0,0L537.5,74l-2.8,2.8
					L518.7,60.7z"/>
				<path class="st0" d="M546.7,53.9l2.6-2.6c2,2,4.4,2.5,7.5-0.6c3.3-3.3,2.9-5.3,1.6-6.6c-0.9-0.9-1.8-1-2.8-0.5
					c-1.1,0.5-3.1,2-4.7,3.2c-1.8,1.4-3.9,2.7-5.3,3c-1.6,0.4-3.3-0.1-4.8-1.6c-2.9-2.9-2.5-7.5,1.7-11.7c4.8-4.8,8.6-4.4,12.2-0.7
					l-2.6,2.6c-2.4-2.4-4.8-2.2-7.3,0.3c-2.4,2.4-2.9,4.9-1.4,6.3c0.9,0.9,1.8,1.1,2.7,0.8c1-0.4,3.1-1.9,4.7-3.1
					c2-1.4,3.8-2.7,5.3-3.2c1.7-0.5,3.4,0,4.9,1.4c2.6,2.6,3.5,6.5-2,12C553.8,58.2,549.6,56.8,546.7,53.9z"/>
			</g>
			<g>
				<path class="st1" d="M543.7,196.8c-6.9-6.9-6.1-16.1,0.2-22.4c6.3-6.3,15.5-7.1,22.4-0.2c7,7,6.3,16.3,0,22.6
					C560,203.1,550.8,203.8,543.7,196.8z M562.3,178.2c-4.9-4.9-11-4.6-15.1-0.5c-4,4-4.3,10.2,0.6,15c5,5,11.2,4.8,15.2,0.8
					C567,189.5,567.3,183.2,562.3,178.2z"/>
				<path class="st1" d="M559,159.9l14.5-14.5l3.3,3.3l-10.6,10.6l6.6,6.6l8.9-8.9l2.8,2.8l-8.9,8.9l9.1,9.1l-4,4L559,159.9z"/>
				<path class="st1" d="M592.7,132.8l-6.7,6.7l-3.3-3.3l17.5-17.5l3.3,3.3l-6.7,6.7l18.5,18.5l-4,4L592.7,132.8z"/>
				<path class="st1" d="M602.9,116.1l9.6-9.6c5.6-5.6,10.9-6.1,14.8-2.1c2.8,2.8,3.5,6,1.4,9l0.1,0.1c3-2.2,5.9-1.4,8.5,1.2
					l5.3,5.3l-4,4l-5.3-5.3c-2.2-2.2-4.3-2.5-7.2,0.4l-6.1,6.1l8.6,8.6l-4,4L602.9,116.1z M623,117c3.2-3.2,3.2-6,0.9-8.3
					c-2.2-2.2-5-2-8.2,1.2l-5.6,5.6l7.2,7.2L623,117z"/>
				<path class="st1" d="M638.1,108l-13.6-13.6l3.9-3.9L642,104c3.3,3.3,7.5,2.9,11-0.6c3.6-3.6,3.9-7.7,0.6-11l-13.5-13.5l3.5-3.5
					l13.6,13.6c5.2,5.2,4.9,12.2-1,18.1C650.3,112.8,643.3,113.2,638.1,108z"/>
				<path class="st1" d="M656.3,69.2l-6.7,6.7l-3.3-3.3l17.5-17.5l3.3,3.3l-6.7,6.7l18.5,18.5l-4,4L656.3,69.2z"/>
				<path class="st1" d="M666.5,52.4l4-4l8.9,8.9L691,45.8l-8.9-8.9l3.9-3.9l21.8,21.8l-3.9,3.9l-9.7-9.7l-11.6,11.6l9.7,9.7l-4,4
					L666.5,52.4z"/>
			</g>
			<g>
				<path class="st0" d="M689.5,199.6l-10-10l2.9-2.9l10,10c2.4,2.4,5.5,2.1,8.1-0.5c2.6-2.6,2.9-5.7,0.5-8.1l-10-10l2.6-2.6l10,10
					c3.9,3.9,3.6,9-0.7,13.3C698.6,203.2,693.4,203.4,689.5,199.6z"/>
				<path class="st0" d="M706.7,183.5l2.6-2.6c2,2,4.4,2.5,7.5-0.6c3.3-3.3,2.9-5.3,1.6-6.6c-0.9-0.9-1.8-1-2.8-0.5
					c-1.1,0.5-3.1,2-4.7,3.2c-1.8,1.4-3.9,2.7-5.3,3c-1.6,0.4-3.3-0.1-4.8-1.6c-2.9-2.9-2.5-7.5,1.7-11.7c4.8-4.8,8.6-4.4,12.2-0.7
					l-2.6,2.6c-2.4-2.4-4.8-2.2-7.3,0.3c-2.4,2.4-2.9,4.9-1.4,6.3c0.9,0.9,1.8,1.1,2.7,0.8c1-0.4,3.1-1.9,4.7-3.1
					c2-1.4,3.8-2.7,5.3-3.2c1.7-0.5,3.4,0,4.9,1.4c2.6,2.6,3.5,6.5-2,12C713.9,187.9,709.7,186.4,706.7,183.5z"/>
				<path class="st0" d="M712.5,156.7l11-11l2.4,2.4l-8,8l4.6,4.6l6.4-6.4l1.9,1.9l-6.4,6.4l4.7,4.7l8.3-8.3l2.4,2.4l-11.2,11.2
					L712.5,156.7z"/>
				<path class="st0" d="M737.8,136.1l-5,5l-2.4-2.4l12.9-12.9l2.4,2.4l-5,5l13.6,13.6l-2.9,2.9L737.8,136.1z"/>
				<path class="st0" d="M745.4,123.7l2.9-2.9l6.6,6.6l8.5-8.5l-6.6-6.6l2.9-2.9l16.1,16.1l-2.9,2.9l-7.1-7.1l-8.5,8.5l7.1,7.1
					l-2.9,2.9L745.4,123.7z"/>
				<path class="st0" d="M762.9,106.2l11-11l2.4,2.4l-8,8l4.6,4.6l6.4-6.4l1.9,1.9l-6.4,6.4l4.7,4.7l8.3-8.3l2.4,2.4L779,122.3
					L762.9,106.2z"/>
				<path class="st0" d="M782,87.2l2.9-2.9l13.6,13.6l8-8l2.4,2.4L798,103.2L782,87.2z"/>
				<path class="st0" d="M795,74.2l11-11l2.4,2.4l-8,8l4.6,4.6l6.4-6.4l1.9,1.9l-6.4,6.4l4.7,4.7l8.3-8.3l2.4,2.4L811,90.2L795,74.2
					z"/>
				<path class="st0" d="M808.4,60.7l4.4-4.4l19.8,4.6l0,0l-12.2-12.1l2.8-2.8L839.3,62l-3.5,3.5l-22.2-5l0,0L827.2,74l-2.8,2.8
					L808.4,60.7z"/>
				<path class="st0" d="M836.4,53.9l2.6-2.6c2,2,4.4,2.5,7.5-0.6c3.3-3.3,2.9-5.3,1.6-6.6c-0.9-0.9-1.8-1-2.8-0.5
					c-1.1,0.5-3.1,2-4.7,3.2c-1.8,1.4-3.9,2.7-5.3,3c-1.6,0.4-3.3-0.1-4.8-1.6c-2.9-2.9-2.5-7.5,1.7-11.7c4.8-4.8,8.6-4.4,12.2-0.7
					l-2.6,2.6c-2.4-2.4-4.8-2.2-7.3,0.3c-2.4,2.4-2.9,4.9-1.4,6.3c0.9,0.9,1.8,1.1,2.7,0.8c1-0.4,3.1-1.9,4.7-3.1
					c2-1.4,3.8-2.7,5.3-3.2c1.7-0.5,3.4,0,4.9,1.4c2.6,2.6,3.5,6.5-2,12C843.5,58.2,839.3,56.8,836.4,53.9z"/>
			</g>
			<g>
				<path class="st1" d="M833.4,196.8c-6.9-6.9-6.1-16.1,0.2-22.4c6.3-6.3,15.5-7.1,22.4-0.2c7,7,6.3,16.3,0,22.6
					C849.7,203.1,840.5,203.8,833.4,196.8z M852,178.2c-4.9-4.9-11-4.6-15.1-0.5c-4,4-4.3,10.2,0.6,15c5,5,11.2,4.8,15.2,0.8
					C856.7,189.5,857,183.2,852,178.2z"/>
				<path class="st1" d="M848.7,159.9l14.5-14.5l3.3,3.3L856,159.3l6.6,6.6l8.9-8.9l2.8,2.8l-8.9,8.9l9.1,9.1l-4,4L848.7,159.9z"/>
				<path class="st1" d="M882.4,132.8l-6.7,6.7l-3.3-3.3l17.5-17.5l3.3,3.3l-6.7,6.7l18.5,18.5l-4,4L882.4,132.8z"/>
				<path class="st1" d="M892.6,116.1l9.6-9.6c5.6-5.6,10.9-6.1,14.8-2.1c2.8,2.8,3.5,6,1.4,9l0.1,0.1c3-2.2,5.9-1.4,8.5,1.2
					l5.3,5.3l-4,4l-5.3-5.3c-2.2-2.2-4.3-2.5-7.2,0.4l-6.1,6.1l8.6,8.6l-4,4L892.6,116.1z M912.7,117c3.2-3.2,3.2-6,0.9-8.3
					c-2.2-2.2-5-2-8.2,1.2l-5.6,5.6l7.2,7.2L912.7,117z"/>
				<path class="st1" d="M927.8,108l-13.6-13.6l3.9-3.9l13.5,13.5c3.3,3.3,7.5,2.9,11-0.6c3.6-3.6,3.9-7.7,0.6-11l-13.5-13.5
					l3.5-3.5l13.6,13.6c5.2,5.2,4.9,12.2-1,18.1C940,112.8,933,113.2,927.8,108z"/>
				<path class="st1" d="M946,69.2l-6.7,6.7l-3.3-3.3l17.5-17.5l3.3,3.3l-6.7,6.7l18.5,18.5l-4,4L946,69.2z"/>
				<path class="st1" d="M956.2,52.4l4-4l8.9,8.9l11.6-11.6l-8.9-8.9l3.9-3.9l21.8,21.8l-3.9,3.9l-9.7-9.7l-11.6,11.6l9.7,9.7l-4,4
					L956.2,52.4z"/>
			</g>
		</g>
		<g>
			<path class="st0" d="M178.4,421.9l-10-10l2.9-2.9l10,10c2.4,2.4,5.5,2.1,8.1-0.5c2.6-2.6,2.9-5.7,0.5-8.1l-10-10l2.6-2.6l10,10
				c3.9,3.9,3.6,9-0.7,13.3C187.4,425.5,182.2,425.8,178.4,421.9z"/>
			<path class="st0" d="M195.6,405.8l2.6-2.6c2,2,4.4,2.5,7.5-0.6c3.3-3.3,2.9-5.3,1.6-6.6c-0.9-0.9-1.8-1-2.8-0.5
				c-1.1,0.5-3.1,2-4.7,3.2c-1.8,1.4-3.9,2.7-5.3,3c-1.6,0.4-3.3-0.1-4.8-1.6c-2.9-2.9-2.5-7.5,1.7-11.7c4.8-4.8,8.6-4.4,12.2-0.7
				l-2.6,2.6c-2.4-2.4-4.8-2.2-7.3,0.3c-2.4,2.4-2.9,4.9-1.4,6.3c0.9,0.9,1.8,1.1,2.7,0.8c1-0.4,3.1-1.9,4.7-3.1
				c2-1.4,3.8-2.7,5.3-3.2c1.7-0.5,3.4,0,4.9,1.4c2.6,2.6,3.5,6.5-2,12C202.7,410.2,198.5,408.8,195.6,405.8z"/>
			<path class="st0" d="M201.3,379l11-11l2.4,2.4l-8,8l4.6,4.6l6.4-6.4l1.9,1.9l-6.4,6.4l4.7,4.7l8.3-8.3l2.4,2.4L217.3,395
				L201.3,379z"/>
			<path class="st0" d="M226.7,358.4l-5,5l-2.4-2.4l12.9-12.9l2.4,2.4l-5,5l13.6,13.6l-2.9,2.9L226.7,358.4z"/>
			<path class="st0" d="M234.2,346.1l2.9-2.9l6.6,6.6l8.5-8.5l-6.6-6.6l2.9-2.9l16.1,16.1l-2.9,2.9l-7.1-7.1l-8.5,8.5l7.1,7.1
				l-2.9,2.9L234.2,346.1z"/>
			<path class="st0" d="M251.7,328.5l11-11l2.4,2.4l-8,8l4.6,4.6l6.4-6.4l1.9,1.9l-6.4,6.4l4.7,4.7l8.3-8.3l2.4,2.4l-11.2,11.2
				L251.7,328.5z"/>
			<path class="st0" d="M270.8,309.5l2.9-2.9l13.6,13.6l8-8l2.4,2.4l-10.9,10.9L270.8,309.5z"/>
			<path class="st0" d="M283.8,296.5l11-11l2.4,2.4l-8,8l4.6,4.6l6.4-6.4l1.9,1.9l-6.4,6.4l4.7,4.7l8.3-8.3l2.4,2.4l-11.2,11.2
				L283.8,296.5z"/>
			<path class="st0" d="M297.3,283l4.4-4.4l19.8,4.6l0,0L309.3,271l2.8-2.8l16.1,16.1l-3.5,3.5l-22.2-5l0,0l13.6,13.6l-2.8,2.8
				L297.3,283z"/>
			<path class="st0" d="M325.2,276.2l2.6-2.6c2,2,4.4,2.5,7.5-0.6c3.3-3.3,2.9-5.3,1.6-6.6c-0.9-0.9-1.8-1-2.8-0.5
				c-1.1,0.5-3.1,2-4.7,3.2c-1.8,1.4-3.9,2.7-5.3,3c-1.6,0.4-3.3-0.1-4.8-1.6c-2.9-2.9-2.5-7.5,1.7-11.7c4.8-4.8,8.6-4.4,12.2-0.7
				l-2.6,2.6c-2.4-2.4-4.8-2.2-7.3,0.3c-2.4,2.4-2.9,4.9-1.4,6.3c0.9,0.9,1.8,1.1,2.7,0.8c1-0.4,3.1-1.9,4.7-3.1
				c2-1.4,3.8-2.7,5.3-3.2c1.7-0.5,3.4,0,4.9,1.4c2.6,2.6,3.5,6.5-2,12C332.4,280.5,328.2,279.1,325.2,276.2z"/>
		</g>
		<g>
			<path class="st1" d="M322.3,419.1c-6.9-6.9-6.1-16.1,0.2-22.4c6.3-6.3,15.5-7.1,22.4-0.2c7,7,6.3,16.3,0,22.6
				C338.5,425.4,329.3,426.1,322.3,419.1z M340.8,400.5c-4.9-4.9-11-4.6-15.1-0.5c-4,4-4.3,10.2,0.6,15c5,5,11.2,4.8,15.2,0.8
				C345.6,411.8,345.8,405.5,340.8,400.5z"/>
			<path class="st1" d="M337.5,382.3l14.5-14.5l3.3,3.3l-10.6,10.6l6.6,6.6l8.9-8.9l2.8,2.8l-8.9,8.9l9.1,9.1l-4,4L337.5,382.3z"/>
			<path class="st1" d="M371.2,355.1l-6.7,6.7l-3.3-3.3l17.5-17.5l3.3,3.3l-6.7,6.7l18.5,18.5l-4,4L371.2,355.1z"/>
			<path class="st1" d="M381.4,338.4l9.6-9.6c5.6-5.6,10.9-6.1,14.8-2.1c2.8,2.8,3.5,6,1.4,9l0.1,0.1c3-2.2,5.9-1.4,8.5,1.2l5.3,5.3
				l-4,4l-5.3-5.3c-2.2-2.2-4.3-2.5-7.2,0.4l-6.1,6.1l8.6,8.6l-4,4L381.4,338.4z M401.6,339.3c3.2-3.2,3.2-6,0.9-8.3
				c-2.2-2.2-5-2-8.2,1.2l-5.6,5.6l7.2,7.2L401.6,339.3z"/>
			<path class="st1" d="M416.6,330.3l-13.6-13.6l3.9-3.9l13.5,13.5c3.3,3.3,7.5,2.9,11-0.6c3.6-3.6,3.9-7.7,0.6-11l-13.5-13.5
				l3.5-3.5l13.6,13.6c5.2,5.2,4.9,12.2-1,18.1C428.9,335.1,421.9,335.5,416.6,330.3z"/>
			<path class="st1" d="M434.9,291.5l-6.7,6.7l-3.3-3.3l17.5-17.5l3.3,3.3l-6.7,6.7l18.5,18.5l-4,4L434.9,291.5z"/>
			<path class="st1" d="M445.1,274.7l4-4l8.9,8.9l11.6-11.6l-8.9-8.9l3.9-3.9l21.8,21.8l-3.9,3.9l-9.7-9.7l-11.6,11.6l9.7,9.7l-4,4
				L445.1,274.7z"/>
		</g>
		<g>
			<path class="st0" d="M468.1,421.9l-10-10l2.9-2.9l10,10c2.4,2.4,5.5,2.1,8.1-0.5c2.6-2.6,2.9-5.7,0.5-8.1l-10-10l2.6-2.6l10,10
				c3.9,3.9,3.6,9-0.7,13.3C477.1,425.5,472,425.8,468.1,421.9z"/>
			<path class="st0" d="M485.3,405.8l2.6-2.6c2,2,4.4,2.5,7.5-0.6c3.3-3.3,2.9-5.3,1.6-6.6c-0.9-0.9-1.8-1-2.8-0.5
				c-1.1,0.5-3.1,2-4.7,3.2c-1.8,1.4-3.9,2.7-5.3,3c-1.6,0.4-3.3-0.1-4.8-1.6c-2.9-2.9-2.5-7.5,1.7-11.7c4.8-4.8,8.6-4.4,12.2-0.7
				l-2.6,2.6c-2.4-2.4-4.8-2.2-7.3,0.3c-2.4,2.4-2.9,4.9-1.4,6.3c0.9,0.9,1.8,1.1,2.7,0.8c1-0.4,3.1-1.9,4.7-3.1
				c2-1.4,3.8-2.7,5.3-3.2c1.7-0.5,3.4,0,4.9,1.4c2.6,2.6,3.5,6.5-2,12C492.4,410.2,488.2,408.8,485.3,405.8z"/>
			<path class="st0" d="M491,379l11-11l2.4,2.4l-8,8l4.6,4.6l6.4-6.4l1.9,1.9l-6.4,6.4l4.7,4.7l8.3-8.3l2.4,2.4L507.1,395L491,379z"
				/>
			<path class="st0" d="M516.4,358.4l-5,5L509,361l12.9-12.9l2.4,2.4l-5,5l13.6,13.6l-2.9,2.9L516.4,358.4z"/>
			<path class="st0" d="M523.9,346.1l2.9-2.9l6.6,6.6l8.5-8.5l-6.6-6.6l2.9-2.9l16.1,16.1l-2.9,2.9l-7.1-7.1l-8.5,8.5l7.1,7.1
				l-2.9,2.9L523.9,346.1z"/>
			<path class="st0" d="M541.5,328.5l11-11l2.4,2.4l-8,8l4.6,4.6l6.4-6.4l1.9,1.9l-6.4,6.4l4.7,4.7l8.3-8.3l2.4,2.4l-11.2,11.2
				L541.5,328.5z"/>
			<path class="st0" d="M560.5,309.5l2.9-2.9l13.6,13.6l8-8l2.4,2.4l-10.9,10.9L560.5,309.5z"/>
			<path class="st0" d="M573.5,296.5l11-11l2.4,2.4l-8,8l4.6,4.6l6.4-6.4l1.9,1.9l-6.4,6.4l4.7,4.7l8.3-8.3l2.4,2.4l-11.2,11.2
				L573.5,296.5z"/>
			<path class="st0" d="M587,283l4.4-4.4l19.8,4.6l0,0L599,271l2.8-2.8l16.1,16.1l-3.5,3.5l-22.2-5l0,0l13.6,13.6l-2.8,2.8L587,283z
				"/>
			<path class="st0" d="M615,276.2l2.6-2.6c2,2,4.4,2.5,7.5-0.6c3.3-3.3,2.9-5.3,1.6-6.6c-0.9-0.9-1.8-1-2.8-0.5
				c-1.1,0.5-3.1,2-4.7,3.2c-1.8,1.4-3.9,2.7-5.3,3c-1.6,0.4-3.3-0.1-4.8-1.6c-2.9-2.9-2.5-7.5,1.7-11.7c4.8-4.8,8.6-4.4,12.2-0.7
				l-2.6,2.6c-2.4-2.4-4.8-2.2-7.3,0.3c-2.4,2.4-2.9,4.9-1.4,6.3c0.9,0.9,1.8,1.1,2.7,0.8c1-0.4,3.1-1.9,4.7-3.1
				c2-1.4,3.8-2.7,5.3-3.2c1.7-0.5,3.4,0,4.9,1.4c2.6,2.6,3.5,6.5-2,12C622.1,280.5,617.9,279.1,615,276.2z"/>
		</g>
		<g>
			<path class="st1" d="M612,419.1c-6.9-6.9-6.1-16.1,0.2-22.4c6.3-6.3,15.5-7.1,22.4-0.2c7,7,6.3,16.3,0,22.6
				C628.3,425.4,619,426.1,612,419.1z M630.5,400.5c-4.9-4.9-11-4.6-15.1-0.5c-4,4-4.3,10.2,0.6,15c5,5,11.2,4.8,15.2,0.8
				C635.3,411.8,635.5,405.5,630.5,400.5z"/>
			<path class="st1" d="M627.3,382.3l14.5-14.5l3.3,3.3l-10.6,10.6l6.6,6.6l8.9-8.9l2.8,2.8l-8.9,8.9l9.1,9.1l-4,4L627.3,382.3z"/>
			<path class="st1" d="M660.9,355.1l-6.7,6.7l-3.3-3.3l17.5-17.5l3.3,3.3l-6.7,6.7l18.5,18.5l-4,4L660.9,355.1z"/>
			<path class="st1" d="M671.1,338.4l9.6-9.6c5.6-5.6,10.9-6.1,14.8-2.1c2.8,2.8,3.5,6,1.4,9l0.1,0.1c3-2.2,5.9-1.4,8.5,1.2l5.3,5.3
				l-4,4l-5.3-5.3c-2.2-2.2-4.3-2.5-7.2,0.4l-6.1,6.1l8.6,8.6l-4,4L671.1,338.4z M691.3,339.3c3.2-3.2,3.2-6,0.9-8.3
				c-2.2-2.2-5-2-8.2,1.2l-5.6,5.6l7.2,7.2L691.3,339.3z"/>
			<path class="st1" d="M706.4,330.3l-13.6-13.6l3.9-3.9l13.5,13.5c3.3,3.3,7.5,2.9,11-0.6c3.6-3.6,3.9-7.7,0.6-11l-13.5-13.5
				l3.5-3.5l13.6,13.6c5.2,5.2,4.9,12.2-1,18.1C718.6,335.1,711.6,335.5,706.4,330.3z"/>
			<path class="st1" d="M724.6,291.5l-6.7,6.7l-3.3-3.3l17.5-17.5l3.3,3.3l-6.7,6.7L747,306l-4,4L724.6,291.5z"/>
			<path class="st1" d="M734.8,274.7l4-4l8.9,8.9l11.6-11.6l-8.9-8.9l3.9-3.9L776,277l-3.9,3.9l-9.7-9.7l-11.6,11.6l9.7,9.7l-4,4
				L734.8,274.7z"/>
		</g>
		<g>
			<path class="st0" d="M757.8,421.9l-10-10l2.9-2.9l10,10c2.4,2.4,5.5,2.1,8.1-0.5c2.6-2.6,2.9-5.7,0.5-8.1l-10-10l2.6-2.6l10,10
				c3.9,3.9,3.6,9-0.7,13.3C766.8,425.5,761.7,425.8,757.8,421.9z"/>
			<path class="st0" d="M775,405.8l2.6-2.6c2,2,4.4,2.5,7.5-0.6c3.3-3.3,2.9-5.3,1.6-6.6c-0.9-0.9-1.8-1-2.8-0.5
				c-1.1,0.5-3.1,2-4.7,3.2c-1.8,1.4-3.9,2.7-5.3,3c-1.6,0.4-3.3-0.1-4.8-1.6c-2.9-2.9-2.5-7.5,1.7-11.7c4.8-4.8,8.6-4.4,12.2-0.7
				l-2.6,2.6c-2.4-2.4-4.8-2.2-7.3,0.3c-2.4,2.4-2.9,4.9-1.4,6.3c0.9,0.9,1.8,1.1,2.7,0.8c1-0.4,3.1-1.9,4.7-3.1
				c2-1.4,3.8-2.7,5.3-3.2c1.7-0.5,3.4,0,4.9,1.4c2.6,2.6,3.5,6.5-2,12C782.1,410.2,777.9,408.8,775,405.8z"/>
			<path class="st0" d="M780.7,379l11-11l2.4,2.4l-8,8l4.6,4.6l6.4-6.4l1.9,1.9l-6.4,6.4l4.7,4.7l8.3-8.3l2.4,2.4L796.8,395
				L780.7,379z"/>
			<path class="st0" d="M806.1,358.4l-5,5l-2.4-2.4l12.9-12.9l2.4,2.4l-5,5l13.6,13.6l-2.9,2.9L806.1,358.4z"/>
			<path class="st0" d="M813.7,346.1l2.9-2.9l6.6,6.6l8.5-8.5l-6.6-6.6l2.9-2.9l16.1,16.1l-2.9,2.9l-7.1-7.1l-8.5,8.5l7.1,7.1
				l-2.9,2.9L813.7,346.1z"/>
			<path class="st0" d="M831.2,328.5l11-11l2.4,2.4l-8,8l4.6,4.6l6.4-6.4l1.9,1.9l-6.4,6.4l4.7,4.7l8.3-8.3l2.4,2.4l-11.2,11.2
				L831.2,328.5z"/>
			<path class="st0" d="M850.3,309.5l2.9-2.9l13.6,13.6l8-8l2.4,2.4l-10.9,10.9L850.3,309.5z"/>
			<path class="st0" d="M863.2,296.5l11-11l2.4,2.4l-8,8l4.6,4.6l6.4-6.4l1.9,1.9l-6.4,6.4l4.7,4.7l8.3-8.3l2.4,2.4l-11.2,11.2
				L863.2,296.5z"/>
			<path class="st0" d="M876.7,283l4.4-4.4l19.8,4.6l0,0L888.7,271l2.8-2.8l16.1,16.1l-3.5,3.5l-22.2-5l0,0l13.6,13.6l-2.8,2.8
				L876.7,283z"/>
			<path class="st0" d="M904.7,276.2l2.6-2.6c2,2,4.4,2.5,7.5-0.6c3.3-3.3,2.9-5.3,1.6-6.6c-0.9-0.9-1.8-1-2.8-0.5
				c-1.1,0.5-3.1,2-4.7,3.2c-1.8,1.4-3.9,2.7-5.3,3c-1.6,0.4-3.3-0.1-4.8-1.6c-2.9-2.9-2.5-7.5,1.7-11.7c4.8-4.8,8.6-4.4,12.2-0.7
				l-2.6,2.6c-2.4-2.4-4.8-2.2-7.3,0.3c-2.4,2.4-2.9,4.9-1.4,6.3c0.9,0.9,1.8,1.1,2.7,0.8c1-0.4,3.1-1.9,4.7-3.1
				c2-1.4,3.8-2.7,5.3-3.2c1.7-0.5,3.4,0,4.9,1.4c2.6,2.6,3.5,6.5-2,12C911.8,280.5,907.6,279.1,904.7,276.2z"/>
		</g>
		<g>
			<path class="st1" d="M901.7,419.1c-6.9-6.9-6.1-16.1,0.2-22.4c6.3-6.3,15.5-7.1,22.4-0.2c7,7,6.3,16.3,0,22.6
				C918,425.4,908.7,426.1,901.7,419.1z M920.3,400.5c-4.9-4.9-11-4.6-15.1-0.5c-4,4-4.3,10.2,0.6,15c5,5,11.2,4.8,15.2,0.8
				C925,411.8,925.2,405.5,920.3,400.5z"/>
			<path class="st1" d="M917,382.3l14.5-14.5l3.3,3.3l-10.6,10.6l6.6,6.6l8.9-8.9l2.8,2.8l-8.9,8.9l9.1,9.1l-4,4L917,382.3z"/>
			<path class="st1" d="M950.6,355.1l-6.7,6.7l-3.3-3.3l17.5-17.5l3.3,3.3l-6.7,6.7l18.5,18.5l-4,4L950.6,355.1z"/>
			<path class="st1" d="M960.9,338.4l9.6-9.6c5.6-5.6,10.9-6.1,14.8-2.1c2.8,2.8,3.5,6,1.4,9l0.1,0.1c3-2.2,5.9-1.4,8.5,1.2l5.3,5.3
				l-4,4l-5.3-5.3c-2.2-2.2-4.3-2.5-7.2,0.4l-6.1,6.1l8.6,8.6l-4,4L960.9,338.4z M981,339.3c3.2-3.2,3.2-6,0.9-8.3
				c-2.2-2.2-5-2-8.2,1.2l-5.6,5.6l7.2,7.2L981,339.3z"/>
			<path class="st1" d="M996.1,330.3l-13.6-13.6l3.9-3.9l13.5,13.5c3.3,3.3,7.5,2.9,11-0.6c3.6-3.6,3.9-7.7,0.6-11l-13.5-13.5
				l3.5-3.5l13.6,13.6c5.2,5.2,4.9,12.2-1,18.1C1008.3,335.1,1001.3,335.5,996.1,330.3z"/>
			<path class="st1" d="M1014.3,291.5l-6.7,6.7l-3.3-3.3l17.5-17.5l3.3,3.3l-6.7,6.7l18.5,18.5l-4,4L1014.3,291.5z"/>
			<path class="st1" d="M1024.5,274.7l4-4l8.9,8.9l11.6-11.6l-8.9-8.9l3.9-3.9l21.8,21.8l-3.9,3.9l-9.7-9.7l-11.6,11.6l9.7,9.7l-4,4
				L1024.5,274.7z"/>
		</g>
		<g>
			<g>
				<path class="st0" d="M110.1,644.2l-10-10l2.9-2.9l10,10c2.4,2.4,5.5,2.1,8.1-0.5c2.6-2.6,2.9-5.7,0.5-8.1l-10-10l2.6-2.6l10,10
					c3.9,3.9,3.6,9-0.7,13.3C119.1,647.8,114,648.1,110.1,644.2z"/>
				<path class="st0" d="M127.3,628.1l2.6-2.6c2,2,4.4,2.5,7.5-0.6c3.3-3.3,2.9-5.3,1.6-6.6c-0.9-0.9-1.8-1-2.8-0.5
					c-1.1,0.5-3.1,2-4.7,3.2c-1.8,1.4-3.9,2.7-5.3,3c-1.6,0.4-3.3-0.1-4.8-1.6c-2.9-2.9-2.5-7.5,1.7-11.7c4.8-4.8,8.6-4.4,12.2-0.7
					l-2.6,2.6c-2.4-2.4-4.8-2.2-7.3,0.3c-2.4,2.4-2.9,4.9-1.4,6.3c0.9,0.9,1.8,1.1,2.7,0.8c1-0.4,3.1-1.9,4.7-3.1
					c2-1.4,3.8-2.7,5.3-3.2c1.7-0.5,3.4,0,4.9,1.4c2.6,2.6,3.5,6.5-2,12C134.4,632.5,130.2,631.1,127.3,628.1z"/>
				<path class="st0" d="M133,601.3l11-11l2.4,2.4l-8,8l4.6,4.6l6.4-6.4l1.9,1.9l-6.4,6.4l4.7,4.7l8.3-8.3l2.4,2.4l-11.2,11.2
					L133,601.3z"/>
				<path class="st0" d="M158.4,580.7l-5,5l-2.4-2.4l12.9-12.9l2.4,2.4l-5,5l13.6,13.6l-2.9,2.9L158.4,580.7z"/>
				<path class="st0" d="M166,568.4l2.9-2.9l6.6,6.6l8.5-8.5l-6.6-6.6l2.9-2.9l16.1,16.1l-2.9,2.9l-7.1-7.1l-8.5,8.5l7.1,7.1
					l-2.9,2.9L166,568.4z"/>
				<path class="st0" d="M183.5,550.9l11-11l2.4,2.4l-8,8l4.6,4.6l6.4-6.4l1.9,1.9l-6.4,6.4l4.7,4.7l8.3-8.3l2.4,2.4l-11.2,11.2
					L183.5,550.9z"/>
				<path class="st0" d="M202.5,531.8l2.9-2.9l13.6,13.6l8-8l2.4,2.4l-10.9,10.9L202.5,531.8z"/>
				<path class="st0" d="M215.5,518.8l11-11l2.4,2.4l-8,8l4.6,4.6l6.4-6.4l1.9,1.9l-6.4,6.4l4.7,4.7l8.3-8.3l2.4,2.4l-11.2,11.2
					L215.5,518.8z"/>
				<path class="st0" d="M229,505.3l4.4-4.4l19.8,4.6l0,0L241,493.3l2.8-2.8l16.1,16.1l-3.5,3.5l-22.2-5l0,0l13.6,13.6l-2.8,2.8
					L229,505.3z"/>
				<path class="st0" d="M257,498.5l2.6-2.6c2,2,4.4,2.5,7.5-0.6c3.3-3.3,2.9-5.3,1.6-6.6c-0.9-0.9-1.8-1-2.8-0.5
					c-1.1,0.5-3.1,2-4.7,3.2c-1.8,1.4-3.9,2.7-5.3,3c-1.6,0.4-3.3-0.1-4.8-1.6c-2.9-2.9-2.5-7.5,1.7-11.7c4.8-4.8,8.6-4.4,12.2-0.7
					l-2.6,2.6c-2.4-2.4-4.8-2.2-7.3,0.3c-2.4,2.4-2.9,4.9-1.4,6.3c0.9,0.9,1.8,1.1,2.7,0.8c1-0.4,3.1-1.9,4.7-3.1
					c2-1.4,3.8-2.7,5.3-3.2c1.7-0.5,3.4,0,4.9,1.4c2.6,2.6,3.5,6.5-2,12C264.1,502.8,259.9,501.4,257,498.5z"/>
			</g>
			<g>
				<path class="st1" d="M254,641.4c-6.9-6.9-6.1-16.1,0.2-22.4c6.3-6.3,15.5-7.1,22.4-0.2c7,7,6.3,16.3,0,22.6
					C270.3,647.8,261,648.5,254,641.4z M272.5,622.9c-4.9-4.9-11-4.6-15.1-0.5c-4,4-4.3,10.2,0.6,15c5,5,11.2,4.8,15.2,0.8
					C277.3,634.1,277.5,627.9,272.5,622.9z"/>
				<path class="st1" d="M269.3,604.6l14.5-14.5l3.3,3.3l-10.6,10.6l6.6,6.6l8.9-8.9l2.8,2.8l-8.9,8.9l9.1,9.1l-4,4L269.3,604.6z"/>
				<path class="st1" d="M302.9,577.5l-6.7,6.7l-3.3-3.3l17.5-17.5l3.3,3.3l-6.7,6.7l18.5,18.5l-4,4L302.9,577.5z"/>
				<path class="st1" d="M313.2,560.7l9.6-9.6c5.6-5.6,10.9-6.1,14.8-2.1c2.8,2.8,3.5,6,1.4,9l0.1,0.1c3-2.2,5.9-1.4,8.5,1.2
					l5.3,5.3l-4,4l-5.3-5.3c-2.2-2.2-4.3-2.5-7.2,0.4l-6.1,6.1l8.6,8.6l-4,4L313.2,560.7z M333.3,561.6c3.2-3.2,3.2-6,0.9-8.3
					c-2.2-2.2-5-2-8.2,1.2l-5.6,5.6l7.2,7.2L333.3,561.6z"/>
				<path class="st1" d="M348.4,552.6L334.8,539l3.9-3.9l13.5,13.5c3.3,3.3,7.5,2.9,11-0.6c3.6-3.6,3.9-7.7,0.6-11l-13.5-13.5
					l3.5-3.5l13.6,13.6c5.2,5.2,4.9,12.2-1,18.1C360.6,557.4,353.6,557.8,348.4,552.6z"/>
				<path class="st1" d="M366.6,513.8l-6.7,6.7l-3.3-3.3l17.5-17.5l3.3,3.3l-6.7,6.7l18.5,18.5l-4,4L366.6,513.8z"/>
				<path class="st1" d="M376.8,497l4-4l8.9,8.9l11.6-11.6l-8.9-8.9l3.9-3.9l21.8,21.8l-3.9,3.9l-9.7-9.7l-11.6,11.6l9.7,9.7l-4,4
					L376.8,497z"/>
			</g>
			<g>
				<path class="st0" d="M399.8,644.2l-10-10l2.9-2.9l10,10c2.4,2.4,5.5,2.1,8.1-0.5c2.6-2.6,2.9-5.7,0.5-8.1l-10-10l2.6-2.6l10,10
					c3.9,3.9,3.6,9-0.7,13.3C408.9,647.8,403.7,648.1,399.8,644.2z"/>
				<path class="st0" d="M417,628.1l2.6-2.6c2,2,4.4,2.5,7.5-0.6c3.3-3.3,2.9-5.3,1.6-6.6c-0.9-0.9-1.8-1-2.8-0.5
					c-1.1,0.5-3.1,2-4.7,3.2c-1.8,1.4-3.9,2.7-5.3,3c-1.6,0.4-3.3-0.1-4.8-1.6c-2.9-2.9-2.5-7.5,1.7-11.7c4.8-4.8,8.6-4.4,12.2-0.7
					l-2.6,2.6c-2.4-2.4-4.8-2.2-7.3,0.3c-2.4,2.4-2.9,4.9-1.4,6.3c0.9,0.9,1.8,1.1,2.7,0.8c1-0.4,3.1-1.9,4.7-3.1
					c2-1.4,3.8-2.7,5.3-3.2c1.7-0.5,3.4,0,4.9,1.4c2.6,2.6,3.5,6.5-2,12C424.1,632.5,420,631.1,417,628.1z"/>
				<path class="st0" d="M422.7,601.3l11-11l2.4,2.4l-8,8l4.6,4.6l6.4-6.4l1.9,1.9l-6.4,6.4l4.7,4.7l8.3-8.3l2.4,2.4l-11.2,11.2
					L422.7,601.3z"/>
				<path class="st0" d="M448.1,580.7l-5,5l-2.4-2.4l12.9-12.9l2.4,2.4l-5,5l13.6,13.6l-2.9,2.9L448.1,580.7z"/>
				<path class="st0" d="M455.7,568.4l2.9-2.9l6.6,6.6l8.5-8.5l-6.6-6.6l2.9-2.9l16.1,16.1l-2.9,2.9l-7.1-7.1l-8.5,8.5l7.1,7.1
					l-2.9,2.9L455.7,568.4z"/>
				<path class="st0" d="M473.2,550.9l11-11l2.4,2.4l-8,8l4.6,4.6l6.4-6.4l1.9,1.9l-6.4,6.4l4.7,4.7l8.3-8.3l2.4,2.4l-11.2,11.2
					L473.2,550.9z"/>
				<path class="st0" d="M492.3,531.8l2.9-2.9l13.6,13.6l8-8l2.4,2.4l-10.9,10.9L492.3,531.8z"/>
				<path class="st0" d="M505.2,518.8l11-11l2.4,2.4l-8,8l4.6,4.6l6.4-6.4l1.9,1.9l-6.4,6.4l4.7,4.7l8.3-8.3l2.4,2.4l-11.2,11.2
					L505.2,518.8z"/>
				<path class="st0" d="M518.7,505.3l4.4-4.4l19.8,4.6l0,0l-12.2-12.1l2.8-2.8l16.1,16.1l-3.5,3.5l-22.2-5l0,0l13.6,13.6l-2.8,2.8
					L518.7,505.3z"/>
				<path class="st0" d="M546.7,498.5l2.6-2.6c2,2,4.4,2.5,7.5-0.6c3.3-3.3,2.9-5.3,1.6-6.6c-0.9-0.9-1.8-1-2.8-0.5
					c-1.1,0.5-3.1,2-4.7,3.2c-1.8,1.4-3.9,2.7-5.3,3c-1.6,0.4-3.3-0.1-4.8-1.6c-2.9-2.9-2.5-7.5,1.7-11.7c4.8-4.8,8.6-4.4,12.2-0.7
					l-2.6,2.6c-2.4-2.4-4.8-2.2-7.3,0.3c-2.4,2.4-2.9,4.9-1.4,6.3c0.9,0.9,1.8,1.1,2.7,0.8c1-0.4,3.1-1.9,4.7-3.1
					c2-1.4,3.8-2.7,5.3-3.2c1.7-0.5,3.4,0,4.9,1.4c2.6,2.6,3.5,6.5-2,12C553.8,502.8,549.6,501.4,546.7,498.5z"/>
			</g>
			<g>
				<path class="st1" d="M543.7,641.4c-6.9-6.9-6.1-16.1,0.2-22.4c6.3-6.3,15.5-7.1,22.4-0.2c7,7,6.3,16.3,0,22.6
					C560,647.8,550.8,648.5,543.7,641.4z M562.3,622.9c-4.9-4.9-11-4.6-15.1-0.5c-4,4-4.3,10.2,0.6,15c5,5,11.2,4.8,15.2,0.8
					C567,634.1,567.3,627.9,562.3,622.9z"/>
				<path class="st1" d="M559,604.6l14.5-14.5l3.3,3.3l-10.6,10.6l6.6,6.6l8.9-8.9l2.8,2.8l-8.9,8.9l9.1,9.1l-4,4L559,604.6z"/>
				<path class="st1" d="M592.7,577.5l-6.7,6.7l-3.3-3.3l17.5-17.5l3.3,3.3l-6.7,6.7l18.5,18.5l-4,4L592.7,577.5z"/>
				<path class="st1" d="M602.9,560.7l9.6-9.6c5.6-5.6,10.9-6.1,14.8-2.1c2.8,2.8,3.5,6,1.4,9l0.1,0.1c3-2.2,5.9-1.4,8.5,1.2
					l5.3,5.3l-4,4l-5.3-5.3c-2.2-2.2-4.3-2.5-7.2,0.4l-6.1,6.1l8.6,8.6l-4,4L602.9,560.7z M623,561.6c3.2-3.2,3.2-6,0.9-8.3
					c-2.2-2.2-5-2-8.2,1.2l-5.6,5.6l7.2,7.2L623,561.6z"/>
				<path class="st1" d="M638.1,552.6L624.5,539l3.9-3.9l13.5,13.5c3.3,3.3,7.5,2.9,11-0.6c3.6-3.6,3.9-7.7,0.6-11l-13.5-13.5
					l3.5-3.5l13.6,13.6c5.2,5.2,4.9,12.2-1,18.1C650.3,557.4,643.3,557.8,638.1,552.6z"/>
				<path class="st1" d="M656.3,513.8l-6.7,6.7l-3.3-3.3l17.5-17.5l3.3,3.3l-6.7,6.7l18.5,18.5l-4,4L656.3,513.8z"/>
				<path class="st1" d="M666.5,497l4-4l8.9,8.9l11.6-11.6l-8.9-8.9l3.9-3.9l21.8,21.8l-3.9,3.9l-9.7-9.7l-11.6,11.6l9.7,9.7l-4,4
					L666.5,497z"/>
			</g>
			<g>
				<path class="st0" d="M689.5,644.2l-10-10l2.9-2.9l10,10c2.4,2.4,5.5,2.1,8.1-0.5c2.6-2.6,2.9-5.7,0.5-8.1l-10-10l2.6-2.6l10,10
					c3.9,3.9,3.6,9-0.7,13.3C698.6,647.8,693.4,648.1,689.5,644.2z"/>
				<path class="st0" d="M706.7,628.1l2.6-2.6c2,2,4.4,2.5,7.5-0.6c3.3-3.3,2.9-5.3,1.6-6.6c-0.9-0.9-1.8-1-2.8-0.5
					c-1.1,0.5-3.1,2-4.7,3.2c-1.8,1.4-3.9,2.7-5.3,3c-1.6,0.4-3.3-0.1-4.8-1.6c-2.9-2.9-2.5-7.5,1.7-11.7c4.8-4.8,8.6-4.4,12.2-0.7
					l-2.6,2.6c-2.4-2.4-4.8-2.2-7.3,0.3c-2.4,2.4-2.9,4.9-1.4,6.3c0.9,0.9,1.8,1.1,2.7,0.8c1-0.4,3.1-1.9,4.7-3.1
					c2-1.4,3.8-2.7,5.3-3.2c1.7-0.5,3.4,0,4.9,1.4c2.6,2.6,3.5,6.5-2,12C713.9,632.5,709.7,631.1,706.7,628.1z"/>
				<path class="st0" d="M712.5,601.3l11-11l2.4,2.4l-8,8l4.6,4.6l6.4-6.4l1.9,1.9l-6.4,6.4l4.7,4.7l8.3-8.3l2.4,2.4l-11.2,11.2
					L712.5,601.3z"/>
				<path class="st0" d="M737.8,580.7l-5,5l-2.4-2.4l12.9-12.9l2.4,2.4l-5,5l13.6,13.6l-2.9,2.9L737.8,580.7z"/>
				<path class="st0" d="M745.4,568.4l2.9-2.9l6.6,6.6l8.5-8.5l-6.6-6.6l2.9-2.9l16.1,16.1l-2.9,2.9l-7.1-7.1l-8.5,8.5l7.1,7.1
					l-2.9,2.9L745.4,568.4z"/>
				<path class="st0" d="M762.9,550.9l11-11l2.4,2.4l-8,8l4.6,4.6l6.4-6.4l1.9,1.9l-6.4,6.4l4.7,4.7l8.3-8.3l2.4,2.4L779,566.9
					L762.9,550.9z"/>
				<path class="st0" d="M782,531.8l2.9-2.9l13.6,13.6l8-8l2.4,2.4L798,547.8L782,531.8z"/>
				<path class="st0" d="M795,518.8l11-11l2.4,2.4l-8,8l4.6,4.6l6.4-6.4l1.9,1.9l-6.4,6.4l4.7,4.7l8.3-8.3l2.4,2.4L811,534.9
					L795,518.8z"/>
				<path class="st0" d="M808.4,505.3l4.4-4.4l19.8,4.6l0,0l-12.2-12.1l2.8-2.8l16.1,16.1l-3.5,3.5l-22.2-5l0,0l13.6,13.6l-2.8,2.8
					L808.4,505.3z"/>
				<path class="st0" d="M836.4,498.5l2.6-2.6c2,2,4.4,2.5,7.5-0.6c3.3-3.3,2.9-5.3,1.6-6.6c-0.9-0.9-1.8-1-2.8-0.5
					c-1.1,0.5-3.1,2-4.7,3.2c-1.8,1.4-3.9,2.7-5.3,3c-1.6,0.4-3.3-0.1-4.8-1.6c-2.9-2.9-2.5-7.5,1.7-11.7c4.8-4.8,8.6-4.4,12.2-0.7
					l-2.6,2.6c-2.4-2.4-4.8-2.2-7.3,0.3c-2.4,2.4-2.9,4.9-1.4,6.3c0.9,0.9,1.8,1.1,2.7,0.8c1-0.4,3.1-1.9,4.7-3.1
					c2-1.4,3.8-2.7,5.3-3.2c1.7-0.5,3.4,0,4.9,1.4c2.6,2.6,3.5,6.5-2,12C843.5,502.8,839.3,501.4,836.4,498.5z"/>
			</g>
			<g>
				<path class="st1" d="M833.4,641.4c-6.9-6.9-6.1-16.1,0.2-22.4c6.3-6.3,15.5-7.1,22.4-0.2c7,7,6.3,16.3,0,22.6
					C849.7,647.8,840.5,648.5,833.4,641.4z M852,622.9c-4.9-4.9-11-4.6-15.1-0.5c-4,4-4.3,10.2,0.6,15c5,5,11.2,4.8,15.2,0.8
					C856.7,634.1,857,627.9,852,622.9z"/>
				<path class="st1" d="M848.7,604.6l14.5-14.5l3.3,3.3L856,603.9l6.6,6.6l8.9-8.9l2.8,2.8l-8.9,8.9l9.1,9.1l-4,4L848.7,604.6z"/>
				<path class="st1" d="M882.4,577.5l-6.7,6.7l-3.3-3.3l17.5-17.5l3.3,3.3l-6.7,6.7l18.5,18.5l-4,4L882.4,577.5z"/>
				<path class="st1" d="M892.6,560.7l9.6-9.6c5.6-5.6,10.9-6.1,14.8-2.1c2.8,2.8,3.5,6,1.4,9l0.1,0.1c3-2.2,5.9-1.4,8.5,1.2
					l5.3,5.3l-4,4l-5.3-5.3c-2.2-2.2-4.3-2.5-7.2,0.4l-6.1,6.1l8.6,8.6l-4,4L892.6,560.7z M912.7,561.6c3.2-3.2,3.2-6,0.9-8.3
					c-2.2-2.2-5-2-8.2,1.2l-5.6,5.6l7.2,7.2L912.7,561.6z"/>
				<path class="st1" d="M927.8,552.6L914.2,539l3.9-3.9l13.5,13.5c3.3,3.3,7.5,2.9,11-0.6c3.6-3.6,3.9-7.7,0.6-11l-13.5-13.5
					l3.5-3.5l13.6,13.6c5.2,5.2,4.9,12.2-1,18.1C940,557.4,933,557.8,927.8,552.6z"/>
				<path class="st1" d="M946,513.8l-6.7,6.7l-3.3-3.3l17.5-17.5l3.3,3.3l-6.7,6.7l18.5,18.5l-4,4L946,513.8z"/>
				<path class="st1" d="M956.2,497l4-4l8.9,8.9l11.6-11.6l-8.9-8.9l3.9-3.9l21.8,21.8l-3.9,3.9l-9.7-9.7l-11.6,11.6l9.7,9.7l-4,4
					L956.2,497z"/>
			</g>
		</g>
		<g>
			<path class="st0" d="M178.4,866.5l-10-10l2.9-2.9l10,10c2.4,2.4,5.5,2.1,8.1-0.5c2.6-2.6,2.9-5.7,0.5-8.1l-10-10l2.6-2.6l10,10
				c3.9,3.9,3.6,9-0.7,13.3C187.4,870.1,182.2,870.4,178.4,866.5z"/>
			<path class="st0" d="M195.6,850.5l2.6-2.6c2,2,4.4,2.5,7.5-0.6c3.3-3.3,2.9-5.3,1.6-6.6c-0.9-0.9-1.8-1-2.8-0.5
				c-1.1,0.5-3.1,2-4.7,3.2c-1.8,1.4-3.9,2.7-5.3,3c-1.6,0.4-3.3-0.1-4.8-1.6c-2.9-2.9-2.5-7.5,1.7-11.7c4.8-4.8,8.6-4.4,12.2-0.7
				l-2.6,2.6c-2.4-2.4-4.8-2.2-7.3,0.3c-2.4,2.4-2.9,4.9-1.4,6.3c0.9,0.9,1.8,1.1,2.7,0.8c1-0.4,3.1-1.9,4.7-3.1
				c2-1.4,3.8-2.7,5.3-3.2c1.7-0.5,3.4,0,4.9,1.4c2.6,2.6,3.5,6.5-2,12C202.7,854.8,198.5,853.4,195.6,850.5z"/>
			<path class="st0" d="M201.3,823.6l11-11l2.4,2.4l-8,8l4.6,4.6l6.4-6.4l1.9,1.9l-6.4,6.4l4.7,4.7l8.3-8.3l2.4,2.4l-11.2,11.2
				L201.3,823.6z"/>
			<path class="st0" d="M226.7,803.1l-5,5l-2.4-2.4l12.9-12.9l2.4,2.4l-5,5l13.6,13.6l-2.9,2.9L226.7,803.1z"/>
			<path class="st0" d="M234.2,790.7l2.9-2.9l6.6,6.6l8.5-8.5l-6.6-6.6l2.9-2.9l16.1,16.1l-2.9,2.9l-7.1-7.1l-8.5,8.5l7.1,7.1
				l-2.9,2.9L234.2,790.7z"/>
			<path class="st0" d="M251.7,773.2l11-11l2.4,2.4l-8,8l4.6,4.6l6.4-6.4l1.9,1.9l-6.4,6.4l4.7,4.7l8.3-8.3l2.4,2.4l-11.2,11.2
				L251.7,773.2z"/>
			<path class="st0" d="M270.8,754.1l2.9-2.9l13.6,13.6l8-8l2.4,2.4l-10.9,10.9L270.8,754.1z"/>
			<path class="st0" d="M283.8,741.1l11-11l2.4,2.4l-8,8l4.6,4.6l6.4-6.4l1.9,1.9l-6.4,6.4l4.7,4.7l8.3-8.3l2.4,2.4l-11.2,11.2
				L283.8,741.1z"/>
			<path class="st0" d="M297.3,727.7l4.4-4.4l19.8,4.6l0,0l-12.2-12.1l2.8-2.8l16.1,16.1l-3.5,3.5l-22.2-5l0,0l13.6,13.6l-2.8,2.8
				L297.3,727.7z"/>
			<path class="st0" d="M325.2,720.8l2.6-2.6c2,2,4.4,2.5,7.5-0.6c3.3-3.3,2.9-5.3,1.6-6.6c-0.9-0.9-1.8-1-2.8-0.5
				c-1.1,0.5-3.1,2-4.7,3.2c-1.8,1.4-3.9,2.7-5.3,3c-1.6,0.4-3.3-0.1-4.8-1.6c-2.9-2.9-2.5-7.5,1.7-11.7c4.8-4.8,8.6-4.4,12.2-0.7
				l-2.6,2.6c-2.4-2.4-4.8-2.2-7.3,0.3c-2.4,2.4-2.9,4.9-1.4,6.3c0.9,0.9,1.8,1.1,2.7,0.8c1-0.4,3.1-1.9,4.7-3.1
				c2-1.4,3.8-2.7,5.3-3.2c1.7-0.5,3.4,0,4.9,1.4c2.6,2.6,3.5,6.5-2,12C332.4,725.1,328.2,723.7,325.2,720.8z"/>
		</g>
		<g>
			<path class="st1" d="M322.3,863.7c-6.9-6.9-6.1-16.1,0.2-22.4c6.3-6.3,15.5-7.1,22.4-0.2c7,7,6.3,16.3,0,22.6
				C338.5,870.1,329.3,870.8,322.3,863.7z M340.8,845.2c-4.9-4.9-11-4.6-15.1-0.5c-4,4-4.3,10.2,0.6,15c5,5,11.2,4.8,15.2,0.8
				C345.6,856.4,345.8,850.2,340.8,845.2z"/>
			<path class="st1" d="M337.5,826.9l14.5-14.5l3.3,3.3l-10.6,10.6l6.6,6.6l8.9-8.9l2.8,2.8l-8.9,8.9l9.1,9.1l-4,4L337.5,826.9z"/>
			<path class="st1" d="M371.2,799.8l-6.7,6.7l-3.3-3.3l17.5-17.5l3.3,3.3l-6.7,6.7l18.5,18.5l-4,4L371.2,799.8z"/>
			<path class="st1" d="M381.4,783l9.6-9.6c5.6-5.6,10.9-6.1,14.8-2.1c2.8,2.8,3.5,6,1.4,9l0.1,0.1c3-2.2,5.9-1.4,8.5,1.2l5.3,5.3
				l-4,4l-5.3-5.3c-2.2-2.2-4.3-2.5-7.2,0.4l-6.1,6.1l8.6,8.6l-4,4L381.4,783z M401.6,783.9c3.2-3.2,3.2-6,0.9-8.3
				c-2.2-2.2-5-2-8.2,1.2l-5.6,5.6l7.2,7.2L401.6,783.9z"/>
			<path class="st1" d="M416.6,774.9l-13.6-13.6l3.9-3.9l13.5,13.5c3.3,3.3,7.5,2.9,11-0.6c3.6-3.6,3.9-7.7,0.6-11l-13.5-13.5
				l3.5-3.5l13.6,13.6c5.2,5.2,4.9,12.2-1,18.1C428.9,779.7,421.9,780.1,416.6,774.9z"/>
			<path class="st1" d="M434.9,736.1l-6.7,6.7l-3.3-3.3l17.5-17.5l3.3,3.3l-6.7,6.7l18.5,18.5l-4,4L434.9,736.1z"/>
			<path class="st1" d="M445.1,719.4l4-4l8.9,8.9l11.6-11.6l-8.9-8.9l3.9-3.9l21.8,21.8l-3.9,3.9l-9.7-9.7l-11.6,11.6l9.7,9.7l-4,4
				L445.1,719.4z"/>
		</g>
		<g>
			<path class="st0" d="M468.1,866.5l-10-10l2.9-2.9l10,10c2.4,2.4,5.5,2.1,8.1-0.5c2.6-2.6,2.9-5.7,0.5-8.1l-10-10l2.6-2.6l10,10
				c3.9,3.9,3.6,9-0.7,13.3C477.1,870.1,472,870.4,468.1,866.5z"/>
			<path class="st0" d="M485.3,850.5l2.6-2.6c2,2,4.4,2.5,7.5-0.6c3.3-3.3,2.9-5.3,1.6-6.6c-0.9-0.9-1.8-1-2.8-0.5
				c-1.1,0.5-3.1,2-4.7,3.2c-1.8,1.4-3.9,2.7-5.3,3c-1.6,0.4-3.3-0.1-4.8-1.6c-2.9-2.9-2.5-7.5,1.7-11.7c4.8-4.8,8.6-4.4,12.2-0.7
				l-2.6,2.6c-2.4-2.4-4.8-2.2-7.3,0.3c-2.4,2.4-2.9,4.9-1.4,6.3c0.9,0.9,1.8,1.1,2.7,0.8c1-0.4,3.1-1.9,4.7-3.1
				c2-1.4,3.8-2.7,5.3-3.2c1.7-0.5,3.4,0,4.9,1.4c2.6,2.6,3.5,6.5-2,12C492.4,854.8,488.2,853.4,485.3,850.5z"/>
			<path class="st0" d="M491,823.6l11-11l2.4,2.4l-8,8l4.6,4.6l6.4-6.4l1.9,1.9l-6.4,6.4l4.7,4.7l8.3-8.3l2.4,2.4l-11.2,11.2
				L491,823.6z"/>
			<path class="st0" d="M516.4,803.1l-5,5l-2.4-2.4l12.9-12.9l2.4,2.4l-5,5l13.6,13.6l-2.9,2.9L516.4,803.1z"/>
			<path class="st0" d="M523.9,790.7l2.9-2.9l6.6,6.6l8.5-8.5l-6.6-6.6l2.9-2.9l16.1,16.1l-2.9,2.9l-7.1-7.1l-8.5,8.5l7.1,7.1
				l-2.9,2.9L523.9,790.7z"/>
			<path class="st0" d="M541.5,773.2l11-11l2.4,2.4l-8,8l4.6,4.6l6.4-6.4l1.9,1.9l-6.4,6.4l4.7,4.7l8.3-8.3l2.4,2.4l-11.2,11.2
				L541.5,773.2z"/>
			<path class="st0" d="M560.5,754.1l2.9-2.9l13.6,13.6l8-8l2.4,2.4l-10.9,10.9L560.5,754.1z"/>
			<path class="st0" d="M573.5,741.1l11-11l2.4,2.4l-8,8l4.6,4.6l6.4-6.4l1.9,1.9l-6.4,6.4l4.7,4.7l8.3-8.3l2.4,2.4l-11.2,11.2
				L573.5,741.1z"/>
			<path class="st0" d="M587,727.7l4.4-4.4l19.8,4.6l0,0L599,715.6l2.8-2.8l16.1,16.1l-3.5,3.5l-22.2-5l0,0l13.6,13.6l-2.8,2.8
				L587,727.7z"/>
			<path class="st0" d="M615,720.8l2.6-2.6c2,2,4.4,2.5,7.5-0.6c3.3-3.3,2.9-5.3,1.6-6.6c-0.9-0.9-1.8-1-2.8-0.5
				c-1.1,0.5-3.1,2-4.7,3.2c-1.8,1.4-3.9,2.7-5.3,3c-1.6,0.4-3.3-0.1-4.8-1.6c-2.9-2.9-2.5-7.5,1.7-11.7c4.8-4.8,8.6-4.4,12.2-0.7
				l-2.6,2.6c-2.4-2.4-4.8-2.2-7.3,0.3c-2.4,2.4-2.9,4.9-1.4,6.3c0.9,0.9,1.8,1.1,2.7,0.8c1-0.4,3.1-1.9,4.7-3.1
				c2-1.4,3.8-2.7,5.3-3.2c1.7-0.5,3.4,0,4.9,1.4c2.6,2.6,3.5,6.5-2,12C622.1,725.1,617.9,723.7,615,720.8z"/>
		</g>
		<g>
			<path class="st1" d="M612,863.7c-6.9-6.9-6.1-16.1,0.2-22.4c6.3-6.3,15.5-7.1,22.4-0.2c7,7,6.3,16.3,0,22.6
				C628.3,870.1,619,870.8,612,863.7z M630.5,845.2c-4.9-4.9-11-4.6-15.1-0.5c-4,4-4.3,10.2,0.6,15c5,5,11.2,4.8,15.2,0.8
				C635.3,856.4,635.5,850.2,630.5,845.2z"/>
			<path class="st1" d="M627.3,826.9l14.5-14.5l3.3,3.3l-10.6,10.6l6.6,6.6l8.9-8.9l2.8,2.8l-8.9,8.9l9.1,9.1l-4,4L627.3,826.9z"/>
			<path class="st1" d="M660.9,799.8l-6.7,6.7l-3.3-3.3l17.5-17.5l3.3,3.3l-6.7,6.7l18.5,18.5l-4,4L660.9,799.8z"/>
			<path class="st1" d="M671.1,783l9.6-9.6c5.6-5.6,10.9-6.1,14.8-2.1c2.8,2.8,3.5,6,1.4,9l0.1,0.1c3-2.2,5.9-1.4,8.5,1.2l5.3,5.3
				l-4,4l-5.3-5.3c-2.2-2.2-4.3-2.5-7.2,0.4l-6.1,6.1l8.6,8.6l-4,4L671.1,783z M691.3,783.9c3.2-3.2,3.2-6,0.9-8.3
				c-2.2-2.2-5-2-8.2,1.2l-5.6,5.6l7.2,7.2L691.3,783.9z"/>
			<path class="st1" d="M706.4,774.9l-13.6-13.6l3.9-3.9l13.5,13.5c3.3,3.3,7.5,2.9,11-0.6c3.6-3.6,3.9-7.7,0.6-11l-13.5-13.5
				l3.5-3.5l13.6,13.6c5.2,5.2,4.9,12.2-1,18.1C718.6,779.7,711.6,780.1,706.4,774.9z"/>
			<path class="st1" d="M724.6,736.1l-6.7,6.7l-3.3-3.3l17.5-17.5l3.3,3.3l-6.7,6.7l18.5,18.5l-4,4L724.6,736.1z"/>
			<path class="st1" d="M734.8,719.4l4-4l8.9,8.9l11.6-11.6l-8.9-8.9l3.9-3.9l21.8,21.8l-3.9,3.9l-9.7-9.7l-11.6,11.6l9.7,9.7l-4,4
				L734.8,719.4z"/>
		</g>
		<g>
			<path class="st0" d="M757.8,866.5l-10-10l2.9-2.9l10,10c2.4,2.4,5.5,2.1,8.1-0.5c2.6-2.6,2.9-5.7,0.5-8.1l-10-10l2.6-2.6l10,10
				c3.9,3.9,3.6,9-0.7,13.3C766.8,870.1,761.7,870.4,757.8,866.5z"/>
			<path class="st0" d="M775,850.5l2.6-2.6c2,2,4.4,2.5,7.5-0.6c3.3-3.3,2.9-5.3,1.6-6.6c-0.9-0.9-1.8-1-2.8-0.5
				c-1.1,0.5-3.1,2-4.7,3.2c-1.8,1.4-3.9,2.7-5.3,3c-1.6,0.4-3.3-0.1-4.8-1.6c-2.9-2.9-2.5-7.5,1.7-11.7c4.8-4.8,8.6-4.4,12.2-0.7
				l-2.6,2.6c-2.4-2.4-4.8-2.2-7.3,0.3c-2.4,2.4-2.9,4.9-1.4,6.3c0.9,0.9,1.8,1.1,2.7,0.8c1-0.4,3.1-1.9,4.7-3.1
				c2-1.4,3.8-2.7,5.3-3.2c1.7-0.5,3.4,0,4.9,1.4c2.6,2.6,3.5,6.5-2,12C782.1,854.8,777.9,853.4,775,850.5z"/>
			<path class="st0" d="M780.7,823.6l11-11l2.4,2.4l-8,8l4.6,4.6l6.4-6.4l1.9,1.9l-6.4,6.4l4.7,4.7l8.3-8.3l2.4,2.4l-11.2,11.2
				L780.7,823.6z"/>
			<path class="st0" d="M806.1,803.1l-5,5l-2.4-2.4l12.9-12.9l2.4,2.4l-5,5l13.6,13.6l-2.9,2.9L806.1,803.1z"/>
			<path class="st0" d="M813.7,790.7l2.9-2.9l6.6,6.6l8.5-8.5l-6.6-6.6l2.9-2.9l16.1,16.1l-2.9,2.9l-7.1-7.1l-8.5,8.5l7.1,7.1
				l-2.9,2.9L813.7,790.7z"/>
			<path class="st0" d="M831.2,773.2l11-11l2.4,2.4l-8,8l4.6,4.6l6.4-6.4l1.9,1.9l-6.4,6.4l4.7,4.7l8.3-8.3l2.4,2.4l-11.2,11.2
				L831.2,773.2z"/>
			<path class="st0" d="M850.3,754.1l2.9-2.9l13.6,13.6l8-8l2.4,2.4l-10.9,10.9L850.3,754.1z"/>
			<path class="st0" d="M863.2,741.1l11-11l2.4,2.4l-8,8l4.6,4.6l6.4-6.4l1.9,1.9l-6.4,6.4l4.7,4.7l8.3-8.3l2.4,2.4l-11.2,11.2
				L863.2,741.1z"/>
			<path class="st0" d="M876.7,727.7l4.4-4.4l19.8,4.6l0,0l-12.2-12.1l2.8-2.8l16.1,16.1l-3.5,3.5l-22.2-5l0,0l13.6,13.6l-2.8,2.8
				L876.7,727.7z"/>
			<path class="st0" d="M904.7,720.8l2.6-2.6c2,2,4.4,2.5,7.5-0.6c3.3-3.3,2.9-5.3,1.6-6.6c-0.9-0.9-1.8-1-2.8-0.5
				c-1.1,0.5-3.1,2-4.7,3.2c-1.8,1.4-3.9,2.7-5.3,3c-1.6,0.4-3.3-0.1-4.8-1.6c-2.9-2.9-2.5-7.5,1.7-11.7c4.8-4.8,8.6-4.4,12.2-0.7
				l-2.6,2.6c-2.4-2.4-4.8-2.2-7.3,0.3c-2.4,2.4-2.9,4.9-1.4,6.3c0.9,0.9,1.8,1.1,2.7,0.8c1-0.4,3.1-1.9,4.7-3.1
				c2-1.4,3.8-2.7,5.3-3.2c1.7-0.5,3.4,0,4.9,1.4c2.6,2.6,3.5,6.5-2,12C911.8,725.1,907.6,723.7,904.7,720.8z"/>
		</g>
		<g>
			<path class="st1" d="M901.7,863.7c-6.9-6.9-6.1-16.1,0.2-22.4c6.3-6.3,15.5-7.1,22.4-0.2c7,7,6.3,16.3,0,22.6
				C918,870.1,908.7,870.8,901.7,863.7z M920.3,845.2c-4.9-4.9-11-4.6-15.1-0.5c-4,4-4.3,10.2,0.6,15c5,5,11.2,4.8,15.2,0.8
				C925,856.4,925.2,850.2,920.3,845.2z"/>
			<path class="st1" d="M917,826.9l14.5-14.5l3.3,3.3l-10.6,10.6l6.6,6.6l8.9-8.9l2.8,2.8l-8.9,8.9l9.1,9.1l-4,4L917,826.9z"/>
			<path class="st1" d="M950.6,799.8l-6.7,6.7l-3.3-3.3l17.5-17.5l3.3,3.3l-6.7,6.7l18.5,18.5l-4,4L950.6,799.8z"/>
			<path class="st1" d="M960.9,783l9.6-9.6c5.6-5.6,10.9-6.1,14.8-2.1c2.8,2.8,3.5,6,1.4,9l0.1,0.1c3-2.2,5.9-1.4,8.5,1.2l5.3,5.3
				l-4,4l-5.3-5.3c-2.2-2.2-4.3-2.5-7.2,0.4l-6.1,6.1l8.6,8.6l-4,4L960.9,783z M981,783.9c3.2-3.2,3.2-6,0.9-8.3
				c-2.2-2.2-5-2-8.2,1.2l-5.6,5.6l7.2,7.2L981,783.9z"/>
			<path class="st1" d="M996.1,774.9l-13.6-13.6l3.9-3.9l13.5,13.5c3.3,3.3,7.5,2.9,11-0.6c3.6-3.6,3.9-7.7,0.6-11l-13.5-13.5
				l3.5-3.5l13.6,13.6c5.2,5.2,4.9,12.2-1,18.1C1008.3,779.7,1001.3,780.1,996.1,774.9z"/>
			<path class="st1" d="M1014.3,736.1l-6.7,6.7l-3.3-3.3l17.5-17.5l3.3,3.3l-6.7,6.7l18.5,18.5l-4,4L1014.3,736.1z"/>
			<path class="st1" d="M1024.5,719.4l4-4l8.9,8.9l11.6-11.6l-8.9-8.9l3.9-3.9l21.8,21.8l-3.9,3.9l-9.7-9.7l-11.6,11.6l9.7,9.7l-4,4
				L1024.5,719.4z"/>
		</g>
		<g>
			<path class="st1" d="M33.9,419.1c-6.9-6.9-6.1-16.1,0.2-22.4c6.3-6.3,15.5-7.1,22.4-0.2c7,7,6.3,16.3,0,22.6
				C50.2,425.4,41,426.1,33.9,419.1z M52.5,400.5c-4.9-4.9-11-4.6-15.1-0.5c-4,4-4.3,10.2,0.6,15c5,5,11.2,4.8,15.2,0.8
				C57.2,411.8,57.5,405.5,52.5,400.5z"/>
			<path class="st1" d="M49.2,382.3l14.5-14.5l3.3,3.3l-10.6,10.6l6.6,6.6l8.9-8.9l2.8,2.8l-8.9,8.9l9.1,9.1l-4,4L49.2,382.3z"/>
			<path class="st1" d="M82.9,355.1l-6.7,6.7l-3.3-3.3l17.5-17.5l3.3,3.3l-6.7,6.7l18.5,18.5l-4,4L82.9,355.1z"/>
			<path class="st1" d="M93.1,338.4l9.6-9.6c5.6-5.6,10.9-6.1,14.8-2.1c2.8,2.8,3.5,6,1.4,9l0.1,0.1c3-2.2,5.9-1.4,8.5,1.2l5.3,5.3
				l-4,4l-5.3-5.3c-2.2-2.2-4.3-2.5-7.2,0.4l-6.1,6.1l8.6,8.6l-4,4L93.1,338.4z M113.2,339.3c3.2-3.2,3.2-6,0.9-8.3
				c-2.2-2.2-5-2-8.2,1.2l-5.6,5.6l7.2,7.2L113.2,339.3z"/>
			<path class="st1" d="M128.3,330.3l-13.6-13.6l3.9-3.9l13.5,13.5c3.3,3.3,7.5,2.9,11-0.6c3.6-3.6,3.9-7.7,0.6-11l-13.5-13.5
				l3.5-3.5l13.6,13.6c5.2,5.2,4.9,12.2-1,18.1C140.5,335.1,133.5,335.5,128.3,330.3z"/>
			<path class="st1" d="M146.5,291.5l-6.7,6.7l-3.3-3.3l17.5-17.5l3.3,3.3l-6.7,6.7L169,306l-4,4L146.5,291.5z"/>
			<path class="st1" d="M156.7,274.7l4-4l8.9,8.9l11.6-11.6l-8.9-8.9l3.9-3.9L198,277l-3.9,3.9l-9.7-9.7l-11.6,11.6l9.7,9.7l-4,4
				L156.7,274.7z"/>
		</g>
		<g>
			<path class="st1" d="M33.9,863.7c-6.9-6.9-6.1-16.1,0.2-22.4c6.3-6.3,15.5-7.1,22.4-0.2c7,7,6.3,16.3,0,22.6
				C50.2,870.1,41,870.8,33.9,863.7z M52.5,845.2c-4.9-4.9-11-4.6-15.1-0.5c-4,4-4.3,10.2,0.6,15c5,5,11.2,4.8,15.2,0.8
				C57.2,856.4,57.5,850.2,52.5,845.2z"/>
			<path class="st1" d="M49.2,826.9l14.5-14.5l3.3,3.3l-10.6,10.6l6.6,6.6l8.9-8.9l2.8,2.8l-8.9,8.9l9.1,9.1l-4,4L49.2,826.9z"/>
			<path class="st1" d="M82.9,799.8l-6.7,6.7l-3.3-3.3l17.5-17.5l3.3,3.3l-6.7,6.7l18.5,18.5l-4,4L82.9,799.8z"/>
			<path class="st1" d="M93.1,783l9.6-9.6c5.6-5.6,10.9-6.1,14.8-2.1c2.8,2.8,3.5,6,1.4,9l0.1,0.1c3-2.2,5.9-1.4,8.5,1.2l5.3,5.3
				l-4,4l-5.3-5.3c-2.2-2.2-4.3-2.5-7.2,0.4l-6.1,6.1l8.6,8.6l-4,4L93.1,783z M113.2,783.9c3.2-3.2,3.2-6,0.9-8.3
				c-2.2-2.2-5-2-8.2,1.2l-5.6,5.6l7.2,7.2L113.2,783.9z"/>
			<path class="st1" d="M128.3,774.9l-13.6-13.6l3.9-3.9l13.5,13.5c3.3,3.3,7.5,2.9,11-0.6c3.6-3.6,3.9-7.7,0.6-11l-13.5-13.5
				l3.5-3.5l13.6,13.6c5.2,5.2,4.9,12.2-1,18.1C140.5,779.7,133.5,780.1,128.3,774.9z"/>
			<path class="st1" d="M146.5,736.1l-6.7,6.7l-3.3-3.3l17.5-17.5l3.3,3.3l-6.7,6.7l18.5,18.5l-4,4L146.5,736.1z"/>
			<path class="st1" d="M156.7,719.4l4-4l8.9,8.9l11.6-11.6l-8.9-8.9l3.9-3.9l21.8,21.8l-3.9,3.9l-9.7-9.7l-11.6,11.6l9.7,9.7l-4,4
				L156.7,719.4z"/>
		</g>
	</g>
</g>
</svg>
